# xmcd
# Copyright (C) 1995-1998 Ti Kan
#
# Track frame offsets:
#       150
#       12910
#       24081
#       43712
#       54507
#       70790
#       84360
#       98165
#       113991
#       133663
#       156052
#       174461
#       195070
#       211028
#
# Disc length: 2922 seconds
#
# Revision: 0
# Processed by: cddbd v1.5.2PL0 Copyright (c) Steve Scherf et al.
# Submitted via: CD-Transfer v1.0
#
DISCID=a30b680e
DTITLE=Volxrock - Volxrock
DYEAR=07
DGENRE=
TTITLE0=Steirischer Brauch
TTITLE1=Volxrock
TTITLE2=Mendocino
TTITLE3=Der Sepp
TTITLE4=Acky Breaky Heart
TTITLE5=Liebe Ohne Zukunft
TTITLE6=Highway To Hell
TTITLE7=Esellied
TTITLE8=Rose Von Südtirol
TTITLE9=Das Lied Der Schlümpfe
TTITLE10=Wieder Mal Nen Tag Verschenkt
TTITLE11=Volxrock Medley
TTITLE12=Bonus Track-Esellied-Apres Ski
TTITLE13=Lacher
EXTD=
EXTT0=
EXTT1=
EXTT2=
EXTT3=
EXTT4=
EXTT5=
EXTT6=
EXTT7=
EXTT8=
EXTT9=
EXTT10=
EXTT11=
EXTT12=
EXTT13=
PLAYORDER=
